<svg xmlns="http://www.w3.org/2000/svg" width="192" height="192" viewBox="0 0 192 192">
  <rect width="192" height="192" rx="32" fill="#1a1a2e"/>
  <g transform="translate(96,96)" stroke="#e0e0e0" stroke-width="4" fill="none" stroke-linecap="round" stroke-linejoin="round">
    <circle cx="0" cy="0" r="8" fill="#e0e0e0"/>
    <path d="M20,-20 a30,30 0 0,1 0,40"/>
    <path d="M-20,20 a30,30 0 0,1 0,-40"/>
    <path d="M35,-35 a52,52 0 0,1 0,70"/>
    <path d="M-35,35 a52,52 0 0,1 0,-70"/>
    <path d="M50,-50 a74,74 0 0,1 0,100"/>
    <path d="M-50,50 a74,74 0 0,1 0,-100"/>
  </g>
</svg>
